# xmcd CD database file
#
# Track frame offsets:
#	150
#	20757
#	35195
#
# Disc length: 741 seconds
#
# Revision: 0
# Processed by: cddbd v1.5PL3 Copyright (c) Steve Scherf et al.
# Submitted via: CDex 1.40Release
#
DISCID=2402e303
DTITLE=SLAP STICKS - 魔方陣グルグル - もう止まらない
DYEAR=1995
DGENRE=Anime
TTITLE0=もう止まらない
TTITLE1=Runaway
TTITLE2=もう止まらない （オリジナル・カラオケ）
EXTD=YEAR: 1995
EXTT0=
EXTT1=
EXTT2=
PLAYORDER=
